<?xml version="1.0" standalone="no"?>
<!DOCTYPE svg PUBLIC "-//W3C//DTD SVG 20010904//EN"
 "http://www.w3.org/TR/2001/REC-SVG-20010904/DTD/svg10.dtd">
<svg version="1.0" xmlns="http://www.w3.org/2000/svg"
 width="576.000000pt" height="418.000000pt" viewBox="0 0 576.000000 418.000000"
 preserveAspectRatio="xMidYMid meet">

<g transform="translate(0.000000,418.000000) scale(0.100000,-0.100000)"
fill="#000000" stroke="none">
<path d="M1972 3724 c-43 -30 -28 -63 104 -239 29 -39 68 -92 86 -117 84 -118
260 -356 286 -388 l30 -35 753 -5 c842 -6 785 0 865 -77 75 -74 107 -208 70
-298 -8 -18 -81 -148 -162 -287 -81 -139 -190 -327 -242 -418 -183 -319 -221
-369 -320 -412 -70 -31 -158 -34 -862 -25 -349 4 -683 6 -742 5 -126 -3 -106
10 -274 -183 -183 -210 -233 -266 -299 -340 -133 -148 -225 -267 -225 -291 0
-15 10 -30 27 -41 26 -17 102 -18 1320 -21 1317 -3 1553 2 1609 31 54 28 86
72 253 344 90 147 201 327 246 398 45 72 137 220 205 330 68 110 219 353 336
540 116 187 257 414 311 505 55 91 114 188 132 216 34 54 33 79 -2 90 -12 4
-226 7 -477 7 -250 -1 -471 1 -490 4 -32 4 -40 13 -88 91 -64 104 -109 176
-221 348 -46 71 -100 154 -119 184 -20 30 -45 65 -55 78 l-20 22 -1007 0
c-894 0 -1008 -2 -1028 -16z"/>
</g>
</svg>
