<?xml version="1.0" standalone="no"?>
<!DOCTYPE svg PUBLIC "-//W3C//DTD SVG 20010904//EN"
 "http://www.w3.org/TR/2001/REC-SVG-20010904/DTD/svg10.dtd">
<svg version="1.0" xmlns="http://www.w3.org/2000/svg"
 width="565.000000pt" height="418.000000pt" viewBox="0 0 565.000000 418.000000"
 preserveAspectRatio="xMidYMid meet">

<g transform="translate(0.000000,418.000000) scale(0.100000,-0.100000)"
fill="#000000" stroke="none">
<path d="M1466 2442 c-2 -4 23 -44 57 -90 l61 -82 174 0 c170 0 173 0 197 -25
14 -13 25 -30 25 -38 0 -22 -128 -240 -156 -264 -24 -22 -32 -23 -219 -23
l-194 0 -73 -86 c-40 -47 -74 -92 -76 -100 -3 -12 45 -14 328 -14 l331 0 27
30 c15 16 60 85 101 152 41 68 104 168 139 223 83 129 92 143 92 149 0 3 -52
7 -117 8 l-116 3 -56 83 -55 82 -233 0 c-127 0 -234 -3 -237 -8z"/>
<path d="M2408 2294 c-5 -4 -8 -108 -8 -231 l0 -223 115 0 c135 0 184 15 215
65 17 28 20 49 20 161 0 110 -3 134 -20 161 -35 58 -61 68 -195 71 -66 2 -123
0 -127 -4z m238 -105 c14 -16 20 -40 23 -100 6 -139 -8 -159 -110 -159 l-69 0
0 140 0 140 68 0 c57 0 72 -4 88 -21z"/>
<path d="M3810 2071 l0 -231 35 0 35 0 -2 228 -3 227 -32 3 -33 3 0 -230z"/>
<path d="M3680 2255 c0 -33 2 -35 35 -35 33 0 35 2 35 35 0 33 -2 35 -35 35
-33 0 -35 -2 -35 -35z"/>
<path d="M2831 2144 l-31 -26 0 -108 c0 -101 2 -111 24 -137 23 -26 30 -28
113 -31 147 -6 174 17 181 154 8 146 -19 174 -167 174 -82 0 -92 -2 -120 -26z
m190 -54 c16 -9 19 -22 19 -80 0 -80 -9 -90 -85 -90 -76 0 -85 10 -85 90 0 55
4 71 18 79 22 14 108 14 133 1z"/>
<path d="M3170 2150 c-6 -12 -9 -75 -8 -162 l3 -143 35 0 35 0 3 126 3 127 32
5 c18 2 42 1 54 -4 21 -8 23 -15 25 -131 l3 -123 35 0 35 0 3 120 c1 66 7 124
11 128 13 13 79 11 96 -3 11 -9 15 -42 17 -128 l3 -117 33 -3 32 -3 0 131 0
132 -34 34 c-31 31 -39 34 -93 34 -35 0 -67 -6 -79 -15 -19 -12 -24 -12 -40 0
-13 10 -47 14 -106 15 -77 0 -89 -2 -98 -20z"/>
<path d="M3675 2158 c-3 -7 -4 -80 -3 -163 l3 -150 38 -3 37 -3 0 165 0 166
-35 0 c-20 0 -38 -6 -40 -12z"/>
<path d="M3956 2108 c-31 -35 -56 -72 -55 -83 0 -11 26 -56 58 -100 54 -76 59
-80 99 -83 26 -2 42 1 42 8 0 6 -27 47 -61 91 -67 89 -67 86 -3 154 16 17 38
40 48 53 l19 22 -46 0 c-43 0 -48 -3 -101 -62z"/>
<path d="M4150 2142 c-29 -29 -30 -34 -30 -120 0 -154 23 -182 153 -182 144 0
167 24 167 174 0 86 -2 98 -24 123 -23 27 -28 28 -130 31 l-106 4 -30 -30z
m191 -52 c16 -9 19 -22 19 -80 0 -81 -9 -90 -86 -90 -67 0 -84 18 -84 91 0 73
14 89 81 89 28 0 59 -5 70 -10z"/>
</g>
</svg>
